<svg width="32" height="32" viewBox="0 0 32 32" fill="none" xmlns="http://www.w3.org/2000/svg">
  <rect width="32" height="32" rx="8" fill="url(#paint0_linear)"/>
  <path d="M7 11C7 9.89543 7.89543 9 9 9H23C24.1046 9 25 9.89543 25 11V21C25 22.1046 24.1046 23 23 23H9C7.89543 23 7 22.1046 7 21V11Z" fill="white" fill-opacity="0.2"/>
  <path d="M7 11L16 17L25 11" stroke="white" stroke-width="1.5" stroke-linecap="round" stroke-linejoin="round"/>
  <path d="M7 11C7 9.89543 7.89543 9 9 9H23C24.1046 9 25 9.89543 25 11V21C25 22.1046 24.1046 23 23 23H9C7.89543 23 7 22.1046 7 21V11Z" stroke="white" stroke-width="1.5" stroke-linejoin="round"/>
  <defs>
    <linearGradient id="paint0_linear" x1="0" y1="0" x2="32" y2="32" gradientUnits="userSpaceOnUse">
      <stop stop-color="#4F46E5"/>
      <stop offset="1" stop-color="#9333EA"/>
    </linearGradient>
  </defs>
</svg>
